<?xml version="1.0" encoding="UTF-8" standalone="no"?>
<!-- Generator: Adobe Illustrator 23.0.3, SVG Export Plug-In . SVG Version: 6.00 Build 0)  -->

<svg
   version="1.1"
   id="Layer_1"
   x="0px"
   y="0px"
   viewBox="0 0 44 51"
   style="enable-background:new 0 0 44 51;"
   xml:space="preserve"
   sodipodi:docname="icon.svg"
   inkscape:version="1.3 (1:1.3+202307231459+0e150ed6c4)"
   inkscape:export-filename="icon.png"
   inkscape:export-xdpi="101.66"
   inkscape:export-ydpi="101.66"
   xmlns:inkscape="http://www.inkscape.org/namespaces/inkscape"
   xmlns:sodipodi="http://sodipodi.sourceforge.net/DTD/sodipodi-0.dtd"
   xmlns="http://www.w3.org/2000/svg"
   xmlns:svg="http://www.w3.org/2000/svg"
   xmlns:figma="http://www.figma.com/figma/ns"><defs
   id="defs1" /><sodipodi:namedview
   id="namedview1"
   pagecolor="#ffffff"
   bordercolor="#000000"
   borderopacity="0.25"
   inkscape:showpageshadow="2"
   inkscape:pageopacity="0.0"
   inkscape:pagecheckerboard="0"
   inkscape:deskcolor="#d1d1d1"
   inkscape:zoom="21.128648"
   inkscape:cx="31.970811"
   inkscape:cy="26.409641"
   inkscape:window-width="2240"
   inkscape:window-height="1291"
   inkscape:window-x="0"
   inkscape:window-y="0"
   inkscape:window-maximized="1"
   inkscape:current-layer="Layer_1" />&#10;<style
   type="text/css"
   id="style1">&#10;	.st0{fill:#4E4E4E;}&#10;	.st1{fill:#767677;}&#10;	.st2{fill:#F37726;}&#10;	.st3{fill:#9E9E9E;}&#10;	.st4{fill:#616262;}&#10;</style>&#10;&#10;&#10;<g
   id="g4"><g
     figma:type="group"
     id="g1"
     transform="matrix(1.0378738,0,0,0.98457917,-0.07047443,0.56071433)">&#10;	<path
   id="path7_fill"
   class="st1"
   d="m 39.5,5.5 c 0,0.6 -0.1,1.2 -0.4,1.7 C 38.8,7.7 38.3,8.1 37.8,8.4 37.3,8.7 36.7,8.8 36.1,8.7 35.5,8.6 35,8.4 34.5,8 34,7.6 33.7,7 33.6,6.4 33.5,5.8 33.5,5.2 33.7,4.6 33.9,4 34.3,3.5 34.8,3.2 c 0.5,-0.4 1.1,-0.6 1.7,-0.6 0.4,0 0.8,0 1.2,0.2 0.4,0.1 0.7,0.3 1,0.6 0.3,0.3 0.5,0.6 0.7,0.9 0.2,0.3 0.1,0.8 0.1,1.2 z" />&#10;	<path
   id="path8_fill"
   class="st2"
   d="m 21.9,38.4 c -8,0 -15.1,-2.9 -18.7,-7.1 1.4,3.8 4,7.1 7.3,9.4 3.3,2.3 7.3,3.6 11.4,3.6 4.1,0 8,-1.2 11.4,-3.6 3.3,-2.3 5.9,-5.6 7.3,-9.4 C 37,35.5 30,38.4 21.9,38.4 Z" />&#10;	<path
   id="path9_fill"
   class="st2"
   d="m 21.9,10.8 c 8,0 15.1,2.9 18.7,7.1 -1.4,-3.8 -4,-7.1 -7.3,-9.4 C 30,6.1 26,4.9 21.9,4.9 c -4.1,0 -8,1.2 -11.4,3.6 -3.3,2.3 -5.9,5.6 -7.3,9.4 3.7,-4.3 10.7,-7.1 18.7,-7.1 z" />&#10;	<path
   id="path10_fill"
   class="st3"
   d="m 10.9,44.7 c 0,0.8 -0.1,1.5 -0.5,2.2 C 10,47.5 9.4,48 8.7,48.3 8,48.6 7.3,48.7 6.5,48.6 5.8,48.5 5.1,48.2 4.5,47.7 3.9,47.2 3.5,46.5 3.4,45.8 3.2,45.1 3.3,44.3 3.5,43.6 c 0.3,-0.7 0.7,-1.3 1.3,-1.8 0.6,-0.4 1.3,-0.7 2.1,-0.7 0.5,0 1,0 1.5,0.2 0.5,0.2 0.9,0.4 1.3,0.8 0.4,0.4 0.7,0.7 0.9,1.2 0.1,0.4 0.2,0.9 0.3,1.4 z" />&#10;	<path
   id="path11_fill"
   class="st4"
   d="M 4.1,9.8 C 3.7,9.8 3.2,9.7 2.9,9.5 2.5,9.3 2.2,8.9 2.1,8.5 1.9,8.1 1.8,7.7 1.9,7.3 2,6.9 2.2,6.5 2.5,6.2 2.8,5.9 3.2,5.7 3.6,5.6 4,5.4 4.4,5.4 4.8,5.6 5.2,5.8 5.6,6 5.8,6.4 6.1,6.7 6.2,7.2 6.2,7.6 6.2,8.2 6,8.8 5.6,9.2 5.3,9.5 4.7,9.8 4.1,9.8 Z" />&#10;</g><text
     xml:space="preserve"
     style="font-weight:bold;font-size:13.3333px;line-height:0px;font-family:'DejaVu Sans';-inkscape-font-specification:'DejaVu Sans Bold';text-align:center;text-anchor:middle;fill:#a631c1"
     x="22.766642"
     y="29.759111"
     id="text1"><tspan
       sodipodi:role="line"
       id="tspan1"
       x="22.766642"
       y="29.759111"
       style="fill:#7f1295;fill-opacity:1">TGBA</tspan></text></g></svg>
